GIL11_slow2_RRA_states
nRows=5
nColumns=47

# SIMM Motion File Header:
name GIL11_slow2_RRA_states
datacolumns 47
datarows 5
otherdata 1
range 0.88917000000000046000 0.89117000000000046000
endheader
time	pelvis_tx	pelvis_ty	pelvis_tz	pelvis_tilt	pelvis_list	pelvis_rotation	hip_flexion_r	hip_adduction_r	hip_rotation_r	knee_angle_r	ankle_angle_r	subtalar_angle_r	mtp_angle_r	hip_flexion_l	hip_adduction_l	hip_rotation_l	knee_angle_l	ankle_angle_l	subtalar_angle_l	mtp_angle_l	lumbar_extension	lumbar_bending	lumbar_rotation	pelvis_tx_u	pelvis_ty_u	pelvis_tz_u	pelvis_tilt_u	pelvis_list_u	pelvis_rotation_u	hip_flexion_r_u	hip_adduction_r_u	hip_rotation_r_u	knee_angle_r_u	ankle_angle_r_u	subtalar_angle_r_u	mtp_angle_r_u	hip_flexion_l_u	hip_adduction_l_u	hip_rotation_l_u	knee_angle_l_u	ankle_angle_l_u	subtalar_angle_l_u	mtp_angle_l_u	lumbar_extension_u	lumbar_bending_u	lumbar_rotation_u
      0.88917000000000046000	      1.93669107772800420000	      0.85493115716530832000	     -0.29226450125136416000	     -6.16157991016270490000	     -4.51246813809225160000	      7.35960311252296150000	     20.63969828506596800000	      1.51907380481260090000	      9.08165833305186250000	      0.65905030949442023000	    -12.01232017797188300000	      0.00000000000000434042	     -0.00000000000001996227	    -10.52627470282850400000	     -4.62658493003510340000	     11.78720430573397600000	    -19.25863229241862500000	      1.08725248558366830000	     -0.00000000000018894924	      0.00000000000033804798	      1.76846307725239300000	      4.78351585849360370000	     -3.97119842382733030000	      1.06548863057506820000	      0.20316729533106118000	      0.22519716949420790000	     13.86490159648940500000	    -47.80004364027333700000	    -33.21623274568406700000	    -65.93895465302699700000	     84.08931826680101600000	     53.58362111669955400000	    -31.54927567752229900000	     51.17797272442857800000	      0.00000000000010861444	     -0.00000000000019621404	     34.55974715187158400000	    -74.55280443746461600000	     21.29105097175667200000	   -182.27520323103374000000	   -208.22011632753922000000	     -0.00000000000075554377	      0.00000000000169053671	     11.96317535766067200000	     51.74573502215736200000	     29.71474302113007600000
      0.88967000000000052000	      1.93722364919152220000	      0.85503289429096974000	     -0.29215177394757957000	     -6.15465232450497360000	     -4.53634414255754500000	      7.34294157210129760000	     20.60673448013298500000	      1.56112708669900350000	      9.10846329402576590000	      0.64326257352019067000	    -11.98656461386879000000	      0.00000000000000439664	     -0.00000000000002006274	    -10.50885854676889000000	     -4.66384259115188640000	     11.79768028626214100000	    -19.34991772779018500000	      0.98284626217359228000	     -0.00000000000018932507	      0.00000000000033889155	      1.77441690584026630000	      4.80935343118409800000	     -3.95630486737833610000	      1.06479625034293620000	      0.20377895001599039000	      0.22571125098845307000	     13.84585698127748900000	    -47.70298895933391500000	    -33.42946472571830400000	    -65.91713909912574800000	     84.12265326856088200000	     53.63369198896573700000	    -31.60039652875372000000	     51.84074860524248900000	      0.00000000000011979535	     -0.00000000000020303299	     35.10427307944148400000	    -74.47715199397822500000	     20.61142201356656800000	   -182.86582949862273000000	   -209.40444313318389000000	     -0.00000000000074346914	      0.00000000000167338066	     11.85150173436295200000	     51.60332690469446200000	     29.85939796108202100000
      0.89017000000000046000	      1.93775587299153980000	      0.85513493383454819000	     -0.29203879082617878000	     -6.14773364605281450000	     -4.56017013998011840000	      7.32617412562243240000	     20.57378028673438700000	      1.60319529312301730000	      9.13528946388161420000	      0.62745116888115193000	    -11.96048293199476300000	      0.00000000000000445696	     -0.00000000000002016415	    -10.49117100593485200000	     -4.70106138453186690000	     11.80781429201426400000	    -19.44149747527751200000	      0.87784860006906351000	     -0.00000000000018969585	      0.00000000000033972537	      1.78031395322822020000	      4.83511795385637820000	     -3.94133912031911700000	      1.06409795022492810000	      0.20437691950470849000	      0.22622037722803523000	     13.82925528107030300000	    -47.60001224494543900000	    -33.63982959190423800000	    -65.90047914352484800000	     84.14899895592651500000	     53.66839629680364300000	    -31.64398143347369100000	     52.48250788194677300000	      0.00000000000012779242	     -0.00000000000017257291	     35.64534089682176400000	    -74.39731492063057800000	     19.92317982365510100000	   -183.45257447072620000000	   -210.58541681345304000000	     -0.00000000000073884001	      0.00000000000167431611	     11.73607361380579300000	     51.45353004819023100000	     30.00348610319256100000
      0.89067000000000052000	      1.93828774615331260000	      0.85523726891785912000	     -0.29192555441948204000	     -6.14082266091856610000	     -4.58394316448327640000	      7.30930222872802120000	     20.54083314369232500000	      1.64527491242977050000	      9.16212911301893130000	      0.61161984725938601000	    -11.93408560809828200000	      0.00000000000000451845	     -0.00000000000002025177	    -10.47321378456494800000	     -4.73823920236915890000	     11.81760206066518600000	    -19.53336964835631300000	      0.77226145593624229000	     -0.00000000000019005918	      0.00000000000034055544	      1.78615235513917540000	      4.86080572631830780000	     -3.92630147869473100000	      1.06339372043883950000	      0.20496113283312481000	      0.22672440823963702000	     13.81510352600661000000	    -47.49109398066556800000	    -33.84727697146505700000	    -65.88896316714391300000	     84.16830565506261100000	     53.68763724420487200000	    -31.68003486600734000000	     53.10325375260860900000	      0.00000000000011922812	     -0.00000000000017343841	     36.18293561681303300000	    -74.31325592197984500000	     19.22650615192424100000	   -184.03539456925822000000	   -211.76271965882685000000	     -0.00000000000071611955	      0.00000000000164826496	     11.61689967103382900000	     51.29632417333176900000	     30.14698964746644100000
      0.89117000000000046000	      1.93881926572146070000	      0.85533989266279187000	     -0.29181206729272646000	     -6.13391813402375870000	     -4.60766023947568740000	      7.29232734376916890000	     20.50789047029258300000	      1.68736241547500150000	      9.18897450682129600000	      0.59577238528274012000	    -11.90738317577038300000	      0.00000000000000457628	     -0.00000000000002034153	    -10.45498864905757800000	     -4.77537392944575160000	     11.82703942304189800000	    -19.62553221279983300000	      0.66608651407899244000	     -0.00000000000019041501	      0.00000000000034137928	      1.79193023115036550000	      4.88641303883642570000	     -3.91119223193485730000	      1.06268354852604130000	      0.20553151811354589000	      0.22722319012917966000	     13.80340292635269300000	    -47.37620922142323100000	    -34.05175350430080500000	    -65.88256702438697200000	     84.18051300338143500000	     53.69131281113400400000	    -31.70858027076661400000	     53.70301374452739700000	      0.00000000000012580682	     -0.00000000000019330460	     36.71705690479248600000	    -74.22493124499254700000	     18.52158287643132800000	   -184.61427091229089000000	   -212.93621302354146000000	     -0.00000000000071785483	      0.00000000000165446733	     11.49399529871981200000	     51.13168367766637300000	     30.28988555043181900000
